<svg xmlns="http://www.w3.org/2000/svg"  viewBox="0 0 2396 500"><path d="M70 401h109l93-354c59 0 113-3 145-42l-8-5c-12 16-44 28-59 31-32 6-88 5-141 1-45-3-80-5-105-5-44 0-81 9-104 43l12 5c15-32 53-39 94-39 16 0 36 1 61 3zm516-234l-90 328h96l23-98c11 6 37 11 50 11 65 0 117-52 142-113 13-32 19-63 19-92 0-50-19-86-73-86-34 0-59 26-77 60 5-29-3-60-52-60-36 0-64 20-76 54l-15 42h10l12-32c9-23 18-34 26-34s7 13 5 20zm1507 24c9-44 0-74-49-74-36 0-64 20-76 54l-15 42h10l12-32c9-23 18-34 28-34s9 12 6 22l-65 231h94l21-80c14-53 34-93 49-121 16-29 30-44 43-44 9 0 6 7 1 23l-64 222h95l22-75c18-60 36-104 53-130 17-27 31-40 42-40 5 0 5 11 0 23l-46 138c-5 16-8 30-8 42 0 29 20 50 57 50 38 0 64-19 76-55l13-39h-10l-11 30c-8 22-18 33-28 33s-11-10-7-22l53-158c5-15 7-28 7-38q0-42-48-42c-22 0-42 6-60 19-17 13-33 37-49 71l3-10c4-15 6-27 6-38 0-28-16-42-47-42-58 0-87 38-115 98zm-150-85c-30 12-67 26-97 26l-5 18c-2-20-18-33-38-33-57 0-113 62-144 121-19 36-26 70-26 103 0 44 22 67 65 67 41 0 67-21 81-61v10c0 31 17 51 55 51s64-19 76-55l13-39h-10l-11 30c-8 22-18 33-28 33-11 0-10-9-6-22zM713 284c-16 48-46 106-82 106-4 0-9-1-14-2l48-170c12-29 31-66 50-66 11 0 12 23 12 43a280 280 0 01-14 89zm305-20c-14 46-51 133-76 133-9 0-11-10-11-30 0-31 6-65 17-103 14-49 52-137 78-137 6 0 9 15 9 31 0 33-6 69-17 106zm105-57c0-56-31-90-95-90-108 0-185 93-185 200 0 60 34 91 95 91 108 0 185-94 185-201zm712-41l-38 127c-11 36-28 78-48 78-12 0-12-11-12-28 0-30 5-61 15-92 14-42 47-108 73-108 8 0 11 11 10 23zm-289 10c18-39 45-63 76-63s53 22 53 53c0 37-27 66-62 66-28 0-39-17-39-39 0-35 31-63 60-65a31 31 0 00-17-5c-18 0-37 16-49 33-18 26-32 62-43 93l-39 149h-94l54-190c13-47 4-80-21-80-16 0-36 16-54 32l-5-8c26-30 81-62 120-62 40 0 70 36 60 86zm-263 39a278.41 278.41 0 006-58c0-21-4-30-12-30-16 0-29 35-33 60a348.14 348.14 0 00-5 58c0 21 2 30 10 30 20 0 30-40 34-60zm95-37c0 52-50 87-106 104-26 8-49 20-49 30s10 14 67 32c34 11 60 32 60 65 0 60-88 91-166 91-44 0-105-12-105-41 0-28 61-38 89-41 16-2 49-7 64-13l6 8c-50 6-83 37-83 54 0 14 20 25 38 25 39 0 86-24 86-51 0-13-26-21-60-32s-79-25-79-50c0-33 50-53 104-74h-6c-49 0-88-17-88-61 0-62 69-107 141-107 53 0 87 19 87 61zm-864-10c0-34-14-51-41-51-24 0-41 12-41 43 0 33 23 62 55 81-14 39-32 75-56 109l-23-170c-6-42-22-63-63-63-36 0-56 18-68 54l-13 39h10l10-29c6-18 15-34 22-34 6 0 8 7 11 23l43 263c-18 16-38 30-61 40-18-31-40-47-66-47-12 0-23 4-31 11-7 8-11 17-11 28s4 19 11 26q12 9 33 9a125.35 125.35 0 0031-4c24-6 48-17 73-34 24-16 47-37 70-64 29-35 53-74 74-118 20-43 31-81 31-112z"/></svg>